PathFileType	4	(X/Y/Z)	T1_P1_Vision_NoMovement_4_0-684.trc
DataRate	CameraRate	NumFrames	NumMarkers	Units	OrigDataRate	OrigDataStartFrame	OrigNumFrames
60	60	4	27	m	60	85	684
Frame#	Time	RHip			RKnee			RAnkle			RBigToe			RSmallToe			RHeel			LHip			LKnee			LAnkle			LBigToe			LSmallToe			LHeel			Neck			Head			Nose			RShoulder			RElbow			RWrist			RThumb			RIndex			RPinky			LShoulder			LElbow			LWrist			LThumb			LIndex			LPinky		
		X1	Y1	Z1	X2	Y2	Z2	X3	Y3	Z3	X4	Y4	Z4	X5	Y5	Z5	X6	Y6	Z6	X7	Y7	Z7	X8	Y8	Z8	X9	Y9	Z9	X10	Y10	Z10	X11	Y11	Z11	X12	Y12	Z12	X13	Y13	Z13	X14	Y14	Z14	X15	Y15	Z15	X16	Y16	Z16	X17	Y17	Z17	X18	Y18	Z18	X19	Y19	Z19	X20	Y20	Z20	X21	Y21	Z21	X22	Y22	Z22	X23	Y23	Z23	X24	Y24	Z24	X25	Y25	Z25	X26	Y26	Z26	X27	Y27	Z27
86	1.4333333333333331	-65.47572031397992	3787.3878414317996	-551.2944453388786	292.3490036400203	3938.96283062053	-514.7962479259413	639.0301033667249	4153.474565024605	-527.1846422560196	699.3029246543609	4041.242837476054	-454.9763008645853	688.2702422413591	3973.8407829057232	-492.10501870547404	678.6284569300225	4187.448190619915	-530.2977172381111	-103.21185521959742	3884.9444714928777	-347.4005994777508	235.6436823674216	3955.247892751129	-352.7081087238852	623.2596124417819	4264.5781443432015	-467.79822740630595	665.5668305402974	3994.986014639573	-344.86630253416877	672.6236623555143	4133.224568330447	-345.7836775484935	666.2296685027657	4322.123989900912	-500.0200712131094	-667.9024541909422	3685.0987636468226	-519.8276909380135	-916.2102881818925	3538.7451955510446	-437.57887589523455	-781.0121169760221	3569.478292150222	-416.45732131577154	-560.0694075543552	3687.596776573204	-680.8649208288117	-281.93367308297746	3648.015698931382	-682.0960921068053	-26.200615874722445	3636.878234829939	-609.6586047229079	86.35545983182614	3741.7391239255885	-561.8822271266564	112.04769644736197	3693.2945728439026	-552.8967310764787	101.33731387562693	3653.1564626145296	-584.9632732047917	-613.9739040428569	3758.92435563034	-360.82328837908807	-392.213392069969	3982.106181666068	-346.3056791437796	-130.13127687559012	3929.7433979514085	-229.95040376565896	5.4526406694740395	3826.8606861296134	-232.78655239065176	20.42784971600282	3849.7540070761984	-198.0544610598963	6.480674026725189	3981.416118724661	-217.28173941711339
87	1.45	-65.4269636306904	3790.417234601114	-552.7670683372199	292.7007725643435	3942.684658552806	-515.6362850602006	641.652338495201	4153.690334975987	-527.3885134014672	699.8039098285717	4042.855068414605	-454.87794617888795	688.4836751979674	3971.737034667986	-491.741699170346	679.9708516169779	4188.273926877973	-530.4967591079152	-102.68189519955477	3885.3263546648877	-347.2343995433785	236.12697480699245	3955.334891063155	-352.6938798551317	624.3841434807578	4271.778215553099	-470.2478696525006	665.9568512338622	3998.515590485422	-345.0516549460686	673.3560191338587	4138.583470581453	-346.9036950501445	666.339525709075	4322.826129694211	-500.4603548767445	-666.8480997895923	3685.1693120846485	-519.560236937784	-916.224120174415	3538.6969025917447	-437.5558431339458	-780.8915078656004	3569.4603601804915	-416.4190148336969	-558.9696841921029	3687.756734717375	-680.8130369614609	-281.8915780960362	3640.9991105669556	-680.0084260480214	-26.13759435316085	3638.109097496721	-610.6933637261609	86.35258875164277	3741.6875319510164	-561.8866078149626	112.19752302282222	3692.9214416354334	-553.7273206909975	101.27614417516266	3653.1906784213693	-585.0049687521907	-614.8271441172298	3760.0401838606003	-361.80661658590043	-392.1724087890121	3982.078174238117	-346.3076276713324	-128.72825545945426	3933.7589859950513	-230.83351507420915	6.344476669817559	3827.475031221007	-233.01850148988945	20.527131437068203	3849.802671643162	-198.0685322601946	6.526424490772061	3981.382814620996	-217.1734715761015
88	1.4666666666666666	-65.36342514876054	3789.054124353887	-552.7638054525809	292.1212061917834	3944.106540930635	-516.2901065345322	643.336238740364	4154.362431663333	-526.677081628568	698.790864473314	4040.0207460412357	-453.05769719365753	689.0152198248692	3970.4671540156774	-491.1674015687911	680.6893489231509	4190.361411783631	-530.9187338141882	-102.55650487548581	3885.3554262764105	-346.9303246331301	236.39359965097503	3955.370243816081	-352.6994102922593	624.3742770921931	4272.882430979984	-469.9020259450015	666.005468661989	3998.914096117555	-345.3442828501961	673.0722174128011	4138.667298382217	-346.6598926371446	666.927064553893	4323.474965340709	-500.887555459905	-665.6144571644794	3685.694617933706	-519.6407917058185	-916.2253092125396	3538.671303855939	-437.53196713653654	-780.8538070250504	3569.424434415209	-416.40035380685697	-558.9984203580268	3687.697334878519	-680.7656321234991	-282.96259389251395	3638.093109141595	-679.2079055034656	-25.993757022758935	3640.650884834305	-612.8335555683275	86.34403795212324	3741.596160739658	-561.8330636252963	112.38022380424522	3692.577899370391	-554.6154973302966	101.26353999598201	3653.1432905569836	-585.0280449664004	-613.9607043414529	3758.9512149745206	-360.82735803351204	-392.1378376627064	3982.0130019628014	-346.2861205998119	-128.0328896950364	3933.666615506617	-230.910911805814	6.121608230612619	3827.2235977607224	-232.8816392288672	20.57946001796709	3849.763992138067	-198.02399179302654	5.316296626790622	3980.117969186638	-216.13539057642578
89	1.4833333333333334	-65.27651569923555	3784.59549597053	-551.7813956204416	291.0577902144252	3943.4729860106145	-516.4627124902827	644.2518394344683	4155.231976986942	-525.6382721114766	697.5597192514705	4035.7213599593842	-450.66298431594055	690.700276979622	3972.892289902212	-491.16228637714727	681.4359720548723	4194.840620383663	-531.8563548578762	-102.54268149779182	3885.3197501830236	-347.22155807832524	236.8629249693234	3955.3624930417373	-352.6801197870289	623.1979126689606	4268.269554165145	-466.6229950616088	666.475654121409	3999.018133024004	-345.48838775304057	672.5620723697295	4137.27521881852	-345.9244150027684	667.8517724378449	4323.839274061891	-501.1397843442622	-664.6873299502673	3686.2498274635036	-519.846720861628	-916.2218129621585	3538.698095885406	-437.53659212871554	-780.9125748656522	3569.429469522723	-416.4177596288879	-560.1180064571226	3687.432830728157	-680.7333966641214	-284.1822252859425	3637.9038754530707	-679.2321918944285	-25.898803003898205	3642.2901665468808	-614.2245763784506	86.33685515657815	3741.5040410913634	-561.7561193003555	112.49400108409873	3692.3712954873995	-555.4331037539378	101.2717078219539	3653.069933542642	-585.0547619369819	-612.1452847571991	3757.0409656351376	-359.03874267775234	-392.12062954033695	3981.9609042328225	-346.25939712335605	-127.84868559670161	3930.744355559802	-230.44066779362004	5.373304329377268	3826.595090699154	-232.59855481647836	20.569471416012924	3849.65973778921	-197.9570415325625	3.8999363878355116	3978.391883815897	-214.4172700191672
